HIERARCHY
ROOT Hips
{
	OFFSET 0.00000 0.00000 0.00000
	CHANNELS 6 Xposition Yposition Zposition Zrotation Yrotation Xrotation 
	JOINT LHipJoint
	{
		OFFSET 0 0 0
		CHANNELS 3 Zrotation Yrotation Xrotation
		JOINT LeftUpLeg
		{
			OFFSET 3.13874 -1.57224 1.49786
			CHANNELS 3 Zrotation Yrotation Xrotation
			JOINT LeftLeg
			{
				OFFSET 2.10955 -5.79594 0.00000
				CHANNELS 3 Zrotation Yrotation Xrotation
				JOINT LeftFoot
				{
					OFFSET 2.41843 -6.64458 0.00000
					CHANNELS 3 Zrotation Yrotation Xrotation
					JOINT LeftToeBase
					{
						OFFSET 0.04713 -0.12948 1.66229
						CHANNELS 3 Zrotation Yrotation Xrotation
						End Site
						{
							OFFSET 0.00000 -0.00000 0.85167
						}
					}
				}
			}
		}
	}
	JOINT RHipJoint
	{
		OFFSET 0 0 0
		CHANNELS 3 Zrotation Yrotation Xrotation
		JOINT RightUpLeg
		{
			OFFSET -3.13988 -1.57224 1.49786
			CHANNELS 3 Zrotation Yrotation Xrotation
			JOINT RightLeg
			{
				OFFSET -2.15006 -5.90725 0.00000
				CHANNELS 3 Zrotation Yrotation Xrotation
				JOINT RightFoot
				{
					OFFSET -2.34496 -6.44273 0.00000
					CHANNELS 3 Zrotation Yrotation Xrotation
					JOINT RightToeBase
					{
						OFFSET -0.08699 -0.23900 1.55223
						CHANNELS 3 Zrotation Yrotation Xrotation
						End Site
						{
							OFFSET -0.00000 -0.00000 0.80281
						}
					}
				}
			}
		}
	}
	JOINT LowerBack
	{
		OFFSET 0 0 0
		CHANNELS 3 Zrotation Yrotation Xrotation
		JOINT Spine
		{
			OFFSET 0.01292 1.96517 -0.16495
			CHANNELS 3 Zrotation Yrotation Xrotation
			JOINT Spine1
			{
				OFFSET 0.02122 1.88666 0.19706
				CHANNELS 3 Zrotation Yrotation Xrotation
				JOINT Neck
				{
					OFFSET 0 0 0
					CHANNELS 3 Zrotation Yrotation Xrotation
					JOINT Neck1
					{
						OFFSET -0.01683 1.81591 0.07903
						CHANNELS 3 Zrotation Yrotation Xrotation
						JOINT Head
						{
							OFFSET 0.00815 1.74013 -0.47700
							CHANNELS 3 Zrotation Yrotation Xrotation
							End Site
							{
								OFFSET -0.00204 1.83225 -0.16933
							}
						}
					}
				}
				JOINT LeftShoulder
				{
					OFFSET 0 0 0
					CHANNELS 3 Zrotation Yrotation Xrotation
					JOINT LeftArm
					{
						OFFSET 3.38482 1.41533 0.19802
						CHANNELS 3 Zrotation Yrotation Xrotation
						JOINT LeftForeArm
						{
							OFFSET 4.32712 -0.00000 0.00000
							CHANNELS 3 Zrotation Yrotation Xrotation
							JOINT LeftHand
							{
								OFFSET 3.28587 -0.00000 -0.00000
								CHANNELS 3 Zrotation Yrotation Xrotation
								JOINT LeftFingerBase
								{
									OFFSET 0 0 0
									CHANNELS 3 Zrotation Yrotation Xrotation
									JOINT LeftHandIndex1
									{
										OFFSET 0.43316 -0.00000 -0.00000
										CHANNELS 3 Zrotation Yrotation Xrotation
										End Site
										{
											OFFSET 0.34922 -0.00000 -0.00000
										}
									}
								}
								JOINT LThumb
								{
									OFFSET 0 0 0
									CHANNELS 3 Zrotation Yrotation Xrotation
									End Site
									{
										OFFSET 0.35456 -0.00000 0.35456
									}
								}
							}
						}
					}
				}
				JOINT RightShoulder
				{
					OFFSET 0 0 0
					CHANNELS 3 Zrotation Yrotation Xrotation
					JOINT RightArm
					{
						OFFSET -3.09725 1.62858 -0.14144
						CHANNELS 3 Zrotation Yrotation Xrotation
						JOINT RightForeArm
						{
							OFFSET -4.29104 -0.00000 0.00000
							CHANNELS 3 Zrotation Yrotation Xrotation
							JOINT RightHand
							{
								OFFSET -3.22720 -0.00000 -0.00000
								CHANNELS 3 Zrotation Yrotation Xrotation
								JOINT RightFingerBase
								{
									OFFSET 0 0 0
									CHANNELS 3 Zrotation Yrotation Xrotation
									JOINT RightHandIndex1
									{
										OFFSET -0.54362 -0.00000 -0.00000
										CHANNELS 3 Zrotation Yrotation Xrotation
										End Site
										{
											OFFSET -0.43828 -0.00000 -0.00000
										}
									}
								}
								JOINT RThumb
								{
									OFFSET 0 0 0
									CHANNELS 3 Zrotation Yrotation Xrotation
									End Site
									{
										OFFSET -0.44497 -0.00000 0.44497
									}
								}
							}
						}
					}
				}
			}
		}
	}
}
MOTION
Frames: 12
Frame Time: .0083333
3.113 15.9776 5.4762 0 0 0 0 0 0 -21 0 0 0 0 0 0 0 0 0 0 0 0 0 0 21 0 0 0 0 0 0 0 0 0 0 0 0 0 0 0 0 0 0 0 0 0 0 -16 0 0 21 0 0 11 0 0 0 -8 0 0 0 0 0 0 0 0 0 0 0 0 0 0 0 0 0 0 0 0 8 0 0 0 0 0 0 0 0 0 0 0 0 0 0 0 0 0
3.1130 15.9776 5.4762 178.3700 -50.8482 -169.1410 0.0000 0.0000 0.0000 -38.3634 -37.5956 18.0912 0.0685 -1.6889 -4.6468 5.6541 -6.3591 -44.1057 0.8607 -5.9161 -16.5413 0.0000 0.0000 0.0000 13.4634 18.6151 -0.4327 -0.0924 -1.9605 5.3965 -1.6900 -7.7088 -28.3742 -0.0878 -1.9106 5.2587 -0.3463 2.8385 6.9235 -1.3171 3.2507 -9.8728 -1.8562 1.2971 -14.7203 4.9329 3.8769 -20.6985 0.5881 1.6856 39.7575 -0.4612 0.8410 18.5910 0.0000 -0.0000 0.0000 -79.1805 10.3606 28.7558 21.1239 -31.9727 -6.1154 -0.0000 -0.0000 6.4907 47.5774 34.6635 31.8971 -7.1250 0.0000 -0.0000 27.9650 74.1337 19.6259 0.0000 -0.0000 0.0000 75.2132 -19.8132 35.3822 -18.5400 28.8431 -4.8069 0.0000 -0.0000 -7.6523 -36.3110 -24.6791 17.0578 7.1250 -0.0000 -0.0000 -8.0675 -59.4921 2.8666
3.1149 15.9770 5.4706 178.7120 -50.5345 -169.4360 0.0000 0.0000 0.0000 -38.1646 -37.5780 18.2076 0.0676 -1.6776 -4.6156 5.7874 -6.0797 -44.6988 0.9646 -6.2533 -17.5212 0.0000 0.0000 0.0000 13.7163 18.6595 -0.5799 -0.0957 -1.9949 5.4915 -1.6317 -7.8595 -28.0740 -0.1109 -2.1475 5.9134 -0.1356 2.9072 7.1860 -1.2892 3.3751 -9.9401 -1.9846 1.3285 -14.9558 4.6082 3.8153 -20.4909 1.1347 1.5694 39.2586 -0.1688 0.8392 18.2248 0.0000 -0.0000 0.0000 -79.0846 11.2873 27.7766 20.9957 -31.8233 -6.0477 -0.0000 -0.0000 6.8373 46.1198 34.9152 30.7604 -7.1250 0.0000 -0.0000 24.5401 73.9723 17.0643 0.0000 -0.0000 0.0000 75.0232 -19.3365 36.4154 -19.0989 29.5414 -5.0795 0.0000 -0.0000 -7.9257 -34.2650 -23.4101 15.1454 7.1250 -0.0000 -0.0000 -5.7856 -57.5351 1.7798
3.1276 15.9788 5.4778 178.9850 -49.2358 -169.6720 0.0000 0.0000 0.0000 -38.7921 -38.5666 19.3555 0.0665 -1.6633 -4.5761 6.4500 -6.5906 -47.3046 0.9259 -6.1301 -17.1623 0.0000 0.0000 0.0000 13.6218 18.7778 -1.7683 -0.1307 -2.3301 6.4189 -1.4823 -7.4634 -26.7665 -0.1196 -2.2295 6.1403 -0.1842 3.3266 7.5182 -1.3016 3.9432 -9.9469 -2.1068 1.5955 -15.1664 4.3153 3.7309 -20.3111 1.6540 1.4421 38.6063 0.0980 0.8412 17.7901 0.0000 -0.0000 0.0000 -78.9448 11.9093 26.7366 20.7511 -31.5367 -5.9192 -0.0000 -0.0000 7.1576 43.6288 34.6158 28.4360 -7.1250 0.0000 -0.0000 18.9076 72.8670 12.6215 0.0000 -0.0000 0.0000 74.9247 -18.6471 37.2827 -19.6174 30.1786 -5.3377 0.0000 -0.0000 -7.9709 -32.6094 -22.4596 13.7343 7.1250 -0.0000 -0.0000 -4.0451 -56.0736 1.1000
3.1256 15.9796 5.4733 178.8540 -48.8168 -169.5200 0.0000 0.0000 0.0000 -39.1693 -38.9778 19.7398 0.0637 -1.6289 -4.4811 6.6692 -6.9623 -48.1164 0.8697 -5.9461 -16.6281 0.0000 0.0000 0.0000 13.4206 18.7794 -2.1046 -0.1373 -2.3885 6.5807 -1.4345 -7.1879 -26.2393 -0.0921 -1.9571 5.3871 -0.2349 3.4734 7.4860 -1.3912 4.1248 -9.9335 -2.2119 1.6803 -15.1214 4.0206 3.6343 -20.0927 2.1524 1.3071 37.9519 0.3462 0.8352 17.3584 0.0000 -0.0000 0.0000 -78.6952 12.5602 25.9560 20.6445 -31.4110 -5.8636 -0.0000 -0.0000 7.0842 41.3571 34.6978 26.6155 -7.1250 0.0000 -0.0000 14.3035 72.2267 9.3095 0.0000 -0.0000 0.0000 74.8572 -18.0739 38.3977 -20.2566 30.9502 -5.6627 0.0000 -0.0000 -8.0345 -31.4783 -22.3308 13.0962 7.1250 -0.0000 -0.0000 -2.8072 -55.6750 0.7358
3.1204 15.9818 5.4741 178.7920 -48.4455 -169.4460 0.0000 0.0000 0.0000 -39.3234 -39.0171 19.8397 0.0626 -1.6147 -4.4420 6.7509 -7.6358 -48.3530 0.7677 -5.5952 -15.6142 0.0000 0.0000 0.0000 13.2539 18.5764 -2.4314 -0.1413 -2.4224 6.6745 -1.3892 -6.6924 -25.5843 -0.0668 -1.6671 4.5866 -0.0857 3.6197 7.5465 -1.5197 4.3313 -9.9292 -2.4829 1.7507 -15.1259 3.7722 3.4507 -19.8956 2.4341 1.1094 37.2993 0.4707 0.7776 16.9477 0.0000 -0.0000 0.0000 -78.4451 13.1957 25.1091 20.4253 -31.1513 -5.7497 -0.0000 -0.0000 6.7290 39.5204 34.5850 25.0916 -7.1250 0.0000 -0.0000 10.8798 71.5071 6.8920 0.0000 -0.0000 0.0000 74.8334 -17.5336 39.4899 -20.8775 31.6851 -5.9855 0.0000 -0.0000 -8.1915 -30.4277 -22.2806 12.5542 7.1250 -0.0000 -0.0000 -1.6604 -55.3883 0.4235
3.1179 15.9810 5.4774 178.9900 -48.0150 -169.5370 0.0000 0.0000 0.0000 -39.1356 -38.9217 19.7198 0.0616 -1.6017 -4.4060 6.7922 -8.1734 -48.4532 0.6931 -5.3221 -14.8296 0.0000 0.0000 0.0000 13.2869 18.4739 -2.8551 -0.1488 -2.4860 6.8508 -1.3504 -6.1224 -24.9312 -0.0432 -1.3419 3.6902 0.1649 3.7703 7.6045 -1.5534 4.5749 -9.9030 -2.7107 1.8367 -15.0981 3.3091 3.2452 -19.3340 2.9619 0.9681 35.9769 0.7372 0.7608 16.1124 0.0000 0.0000 0.0000 -78.3851 13.8193 23.8624 19.9781 -30.6160 -5.5202 -0.0000 -0.0000 6.1366 38.3975 32.7698 23.2176 -7.1250 0.0000 -0.0000 9.4762 69.1630 5.5035 0.0000 0.0000 0.0000 74.7250 -16.8688 40.5289 -21.4381 32.3361 -6.2826 0.0000 -0.0000 -8.2726 -27.7886 -21.3087 10.8410 7.1250 -0.0000 -0.0000 0.9496 -53.7703 -0.2048
3.1199 15.9805 5.4782 179.2210 -47.5457 -169.6540 0.0000 0.0000 0.0000 -38.8469 -38.7876 19.5538 0.0615 -1.6005 -4.4029 6.8898 -7.9646 -48.8524 0.7461 -5.5176 -15.3909 0.0000 0.0000 0.0000 13.3871 18.6042 -3.2644 -0.1603 -2.5793 7.1096 -1.3357 -5.4764 -24.4260 -0.0291 -1.1021 3.0298 0.3325 3.9281 7.7613 -1.5325 4.8199 -9.9354 -2.8438 1.9303 -15.2159 3.2383 3.0275 -19.2174 2.6337 0.8204 35.7983 0.5750 0.6434 15.9927 -0.0000 -0.0000 0.0000 -78.3563 14.6650 22.6078 19.6402 -30.2064 -5.3491 -0.0000 -0.0000 5.7101 36.7434 32.1609 21.6724 -7.1250 0.0000 -0.0000 7.0460 67.9778 3.8975 -0.0000 -0.0000 0.0000 74.5755 -16.2945 41.5463 -21.9807 32.9552 -6.5754 0.0000 -0.0000 -8.3953 -27.7718 -21.5397 10.9427 7.1250 -0.0000 -0.0000 1.0239 -54.0183 -0.2270
3.1217 15.9805 5.4767 179.4000 -47.1531 -169.7650 0.0000 0.0000 0.0000 -38.6748 -38.7524 19.5132 0.0604 -1.5863 -4.3635 7.0210 -7.7958 -49.3740 0.8031 -5.7196 -15.9730 0.0000 0.0000 0.0000 13.4884 18.8054 -3.5370 -0.1707 -2.6614 7.3375 -1.3526 -4.9460 -24.2503 -0.0249 -1.0186 2.8000 0.4742 4.0447 7.9982 -1.5062 5.0051 -9.9926 -2.9540 1.9949 -15.4206 3.3030 3.0563 -19.3884 2.4396 0.9178 35.8312 0.5019 0.6693 16.0512 -0.0000 0.0000 0.0000 -78.3042 15.4645 21.2591 19.2417 -29.7179 -5.1501 -0.0000 -0.0000 5.7951 34.7137 31.7524 20.0308 -7.1250 0.0000 -0.0000 4.1784 66.9111 2.2067 -0.0000 0.0000 0.0000 74.4420 -15.7340 42.5339 -22.3746 33.3978 -6.7909 0.0000 -0.0000 -8.5377 -27.8237 -21.4293 10.9139 7.1250 -0.0000 -0.0000 0.9420 -53.9086 -0.2063
3.1206 15.9797 5.4750 179.4360 -46.7769 -169.7690 0.0000 0.0000 0.0000 -38.8343 -39.0085 19.7497 0.0578 -1.5507 -4.2655 7.1667 -8.2991 -49.8734 0.7172 -5.4120 -15.0874 0.0000 0.0000 0.0000 13.4738 18.9208 -3.7398 -0.1772 -2.7114 7.4762 -1.3729 -4.5379 -24.1818 -0.0272 -1.0644 2.9261 0.5444 4.1447 8.1162 -1.4843 5.1576 -10.0032 -3.0106 2.0571 -15.4987 3.2765 3.0836 -19.5234 2.3489 1.0012 35.8890 0.4861 0.6893 16.1120 0.0000 -0.0000 0.0000 -78.2743 16.0685 19.7906 18.6997 -29.0438 -4.8842 -0.0000 -0.0000 5.9510 32.6079 31.2581 18.3635 -7.1250 0.0000 -0.0000 1.4380 65.7505 0.7206 0.0000 -0.0000 0.0000 74.2830 -15.1244 43.4721 -22.6857 33.7433 -6.9629 0.0000 -0.0000 -8.5239 -27.7451 -21.2179 10.7786 7.1250 -0.0000 -0.0000 0.9735 -53.6628 -0.2074
3.1194 15.9806 5.4738 179.3680 -46.4120 -169.7180 0.0000 0.0000 0.0000 -39.0311 -39.1304 19.9233 0.0557 -1.5224 -4.1875 7.2571 -8.5715 -50.1872 0.6577 -5.1873 -14.4434 0.0000 0.0000 0.0000 13.3749 18.9216 -3.8769 -0.1775 -2.7136 7.4825 -1.3546 -4.2772 -23.8970 -0.0216 -0.9478 2.6052 0.5985 4.2864 8.2184 -1.5213 5.3563 -10.0178 -3.1330 2.1381 -15.5647 2.9941 2.9659 -19.3864 2.5077 0.8514 35.9638 0.5727 0.6032 16.1104 0.0000 -0.0000 0.0000 -78.1278 16.6491 18.5362 18.1640 -28.3667 -4.6269 -0.0000 -0.0000 5.9919 30.6482 30.9150 16.9315 -7.1250 0.0000 -0.0000 -1.0121 64.8178 -0.4853 0.0000 -0.0000 0.0000 74.2133 -14.6544 44.1486 -22.9900 34.0779 -7.1327 0.0000 -0.0000 -8.2880 -27.8601 -21.4117 10.9220 7.1250 -0.0000 -0.0000 0.8992 -53.8968 -0.1967
3.1196 15.9820 5.4716 179.4340 -46.1134 -169.7670 0.0000 0.0000 0.0000 -39.0416 -39.1725 20.0223 0.0551 -1.5146 -4.1659 7.3709 -8.5469 -50.6169 0.6824 -5.2817 -14.7138 0.0000 0.0000 0.0000 13.4019 18.9448 -4.0035 -0.1779 -2.7169 7.4916 -1.3274 -4.0516 -23.5599 -0.0105 -0.6608 1.8160 0.7099 4.4217 8.3555 -1.5159 5.5607 -10.0603 -3.2463 2.2154 -15.6854 3.0100 2.8918 -19.4306 2.3271 0.7833 36.1106 0.4793 0.5468 16.1955 0.0000 0.0000 0.0000 -78.0300 17.1402 17.1336 17.5143 -27.5308 -4.3224 -0.0000 -0.0000 6.4130 26.3311 31.1674 14.3665 -7.1250 0.0000 -0.0000 -6.6166 63.8769 -3.0340 0.0000 0.0000 0.0000 74.1183 -14.2334 44.7847 -23.1867 34.2924 -7.2432 0.0000 -0.0000 -7.9403 -28.5812 -22.1520 11.6084 7.1250 -0.0000 -0.0000 0.3129 -54.8525 -0.0757
